<svg id="Logo_IFRN-ZL" data-name="Logo IFRN-ZL" xmlns="http://www.w3.org/2000/svg" width="140" height="38.62" viewBox="0 0 140 38.62">
  <g id="Grupo_791" data-name="Grupo 791">
    <path id="Caminho_5752" data-name="Caminho 5752" d="M54.543,8.972a.766.766,0,0,1-.766.765H47.442a.765.765,0,0,1-.766-.765V2.636a.765.765,0,0,1,.766-.765h6.335a.765.765,0,0,1,.766.765Z" transform="translate(-36.843 -1.477)" fill="#359737"/>
    <path id="Caminho_5805" data-name="Caminho 5805" d="M54.543,8.972a.766.766,0,0,1-.766.765H47.442a.765.765,0,0,1-.766-.765V2.636a.765.765,0,0,1,.766-.765h6.335a.765.765,0,0,1,.766.765Z" transform="translate(-36.843 7.959)" fill="#359737"/>
    <path id="Caminho_5807" data-name="Caminho 5807" d="M54.543,8.972a.766.766,0,0,1-.766.765H47.442a.765.765,0,0,1-.766-.765V2.636a.765.765,0,0,1,.766-.765h6.335a.765.765,0,0,1,.766.765Z" transform="translate(-36.843 17.394)" fill="#359737"/>
    <path id="Caminho_5810" data-name="Caminho 5810" d="M54.543,8.972a.766.766,0,0,1-.766.765H47.442a.765.765,0,0,1-.766-.765V2.636a.765.765,0,0,1,.766-.765h6.335a.765.765,0,0,1,.766.765Z" transform="translate(-36.843 26.83)" fill="#359737"/>
    <path id="Caminho_5753" data-name="Caminho 5753" d="M99.352,8.972a.766.766,0,0,1-.766.765H92.252a.765.765,0,0,1-.766-.765V2.636a.765.765,0,0,1,.766-.765h6.334a.765.765,0,0,1,.766.765Z" transform="translate(-72.213 -1.477)" fill="#359737"/>
    <path id="Caminho_5808" data-name="Caminho 5808" d="M99.352,8.972a.766.766,0,0,1-.766.765H92.252a.765.765,0,0,1-.766-.765V2.636a.765.765,0,0,1,.766-.765h6.334a.765.765,0,0,1,.766.765Z" transform="translate(-72.213 17.394)" fill="#359737"/>
    <path id="Caminho_5804" data-name="Caminho 5804" d="M99.352,8.972a.766.766,0,0,1-.766.765H92.252a.765.765,0,0,1-.766-.765V2.636a.765.765,0,0,1,.766-.765h6.334a.765.765,0,0,1,.766.765Z" transform="translate(-91.09 7.959)" fill="#359737"/>
    <path id="Caminho_5806" data-name="Caminho 5806" d="M99.352,8.972a.766.766,0,0,1-.766.765H92.252a.765.765,0,0,1-.766-.765V2.636a.765.765,0,0,1,.766-.765h6.334a.765.765,0,0,1,.766.765Z" transform="translate(-91.09 17.394)" fill="#359737"/>
    <path id="Caminho_5809" data-name="Caminho 5809" d="M99.352,8.972a.766.766,0,0,1-.766.765H92.252a.765.765,0,0,1-.766-.765V2.636a.765.765,0,0,1,.766-.765h6.334a.765.765,0,0,1,.766.765Z" transform="translate(-91.09 26.83)" fill="#359737"/>
    <path id="Caminho_5754" data-name="Caminho 5754" d="M8.653,4.327A4.327,4.327,0,1,1,4.327,0,4.326,4.326,0,0,1,8.653,4.327" fill="#c91517"/>
    <rect id="Retângulo_3491" data-name="Retângulo 3491" width="1.662" height="7.826" transform="translate(32.648 9.694)" fill="#2b2b2b"/>
    <path id="Caminho_5755" data-name="Caminho 5755" d="M179.187,53.841h-2.113l-3.411-5.921h-.048q.021.369.037.744l.032.747q.016.372.032.747v3.683h-1.485V46.015h2.1l3.405,5.862h.037q-.011-.364-.027-.723t-.029-.717q-.014-.359-.024-.717v-3.7h1.5Z" transform="translate(-135.948 -36.321)" fill="#2b2b2b"/>
    <path id="Caminho_5756" data-name="Caminho 5756" d="M217.433,51.246a2.063,2.063,0,0,1-1.322,2,3.962,3.962,0,0,1-1.569.278,5.811,5.811,0,0,1-.8-.054,5.148,5.148,0,0,1-.745-.158,4.4,4.4,0,0,1-.678-.26V51.514q.557.246,1.158.444a3.782,3.782,0,0,0,1.191.2,1.691,1.691,0,0,0,.657-.107.749.749,0,0,0,.362-.295.816.816,0,0,0,.113-.428.7.7,0,0,0-.2-.5,2.087,2.087,0,0,0-.544-.391q-.346-.182-.78-.391-.274-.128-.6-.313a3.357,3.357,0,0,1-.611-.453,2.142,2.142,0,0,1-.475-.65,2.092,2.092,0,0,1-.185-.918,2.161,2.161,0,0,1,.322-1.2,2.05,2.05,0,0,1,.92-.763,3.464,3.464,0,0,1,1.413-.265,4.683,4.683,0,0,1,1.166.142,7.44,7.44,0,0,1,1.161.409l-.536,1.29a9.392,9.392,0,0,0-.971-.34,3.213,3.213,0,0,0-.874-.121,1.289,1.289,0,0,0-.531.1.737.737,0,0,0-.332.278.763.763,0,0,0-.113.415.693.693,0,0,0,.164.469,1.715,1.715,0,0,0,.493.367q.33.177.823.412a6.526,6.526,0,0,1,1.027.592,2.225,2.225,0,0,1,.657.723,2.1,2.1,0,0,1,.231,1.031" transform="translate(-167.593 -35.9)" fill="#2b2b2b"/>
    <path id="Caminho_5757" data-name="Caminho 5757" d="M243.478,53.841h-1.662V47.4h-2.129V46.015h5.92V47.4h-2.129Z" transform="translate(-189.191 -36.321)" fill="#2b2b2b"/>
    <rect id="Retângulo_3492" data-name="Retângulo 3492" width="1.662" height="7.826" transform="translate(57.622 9.694)" fill="#2b2b2b"/>
    <path id="Caminho_5758" data-name="Caminho 5758" d="M290.925,53.841h-1.662V47.4h-2.129V46.015h5.92V47.4h-2.129Z" transform="translate(-226.643 -36.321)" fill="#2b2b2b"/>
    <path id="Caminho_5759" data-name="Caminho 5759" d="M327.144,46.014v5.064a2.982,2.982,0,0,1-.357,1.459,2.539,2.539,0,0,1-1.078,1.03,3.867,3.867,0,0,1-1.815.38,3.266,3.266,0,0,1-2.37-.792,2.792,2.792,0,0,1-.815-2.1V46.014h1.657v4.791a1.873,1.873,0,0,0,.4,1.36,1.607,1.607,0,0,0,1.174.391,1.835,1.835,0,0,0,.888-.187,1.122,1.122,0,0,0,.5-.578,2.638,2.638,0,0,0,.161-1V46.014Z" transform="translate(-253.145 -36.32)" fill="#2b2b2b"/>
    <path id="Caminho_5760" data-name="Caminho 5760" d="M360.517,53.841h-1.662V47.4h-2.129V46.015h5.92V47.4h-2.129Z" transform="translate(-281.574 -36.321)" fill="#2b2b2b"/>
    <path id="Caminho_5761" data-name="Caminho 5761" d="M396.366,49.456a5.647,5.647,0,0,1-.225,1.646,3.5,3.5,0,0,1-.684,1.277,2.978,2.978,0,0,1-1.161.822,4.965,4.965,0,0,1-3.325,0,2.981,2.981,0,0,1-1.161-.822,3.494,3.494,0,0,1-.684-1.279,5.7,5.7,0,0,1-.225-1.654,5.19,5.19,0,0,1,.4-2.117,3.012,3.012,0,0,1,1.231-1.4,4.061,4.061,0,0,1,2.113-.5,4.005,4.005,0,0,1,2.1.5,3.025,3.025,0,0,1,1.223,1.4,5.227,5.227,0,0,1,.4,2.125m-5.722,0a4.3,4.3,0,0,0,.206,1.411,1.83,1.83,0,0,0,.646.91,1.893,1.893,0,0,0,1.137.318,1.912,1.912,0,0,0,1.148-.318,1.8,1.8,0,0,0,.641-.91,4.4,4.4,0,0,0,.2-1.411,3.517,3.517,0,0,0-.461-1.938,1.675,1.675,0,0,0-1.517-.707,1.915,1.915,0,0,0-1.145.319,1.824,1.824,0,0,0-.649.91,4.315,4.315,0,0,0-.206,1.416" transform="translate(-306.972 -35.86)" fill="#2b2b2b"/>
    <path id="Caminho_5762" data-name="Caminho 5762" d="M447.223,53.841h-1.636V46.015h4.494v1.36h-2.858v2.018h2.66v1.354h-2.66Z" transform="translate(-351.716 -36.321)" fill="#2b2b2b"/>
    <path id="Caminho_5763" data-name="Caminho 5763" d="M478.714,53.841H474.2V46.015h4.515v1.36h-2.853v1.718h2.654v1.36h-2.654v2.018h2.853Z" transform="translate(-374.299 -36.321)" fill="#2b2b2b"/>
    <path id="Caminho_5764" data-name="Caminho 5764" d="M509.9,49.852a4.391,4.391,0,0,1-.507,2.208,3.2,3.2,0,0,1-1.467,1.333,5.441,5.441,0,0,1-2.311.447h-2.22V46.014h2.461a4.888,4.888,0,0,1,2.14.436,3.194,3.194,0,0,1,1.4,1.29,4.129,4.129,0,0,1,.5,2.112m-1.727.043a3.455,3.455,0,0,0-.255-1.426,1.711,1.711,0,0,0-.751-.827,2.552,2.552,0,0,0-1.225-.268h-.885v5.1h.713a2.336,2.336,0,0,0,1.81-.648,2.768,2.768,0,0,0,.593-1.927" transform="translate(-397.345 -36.32)" fill="#2b2b2b"/>
    <path id="Caminho_5765" data-name="Caminho 5765" d="M546.5,53.841h-4.515V46.015H546.5v1.36h-2.853v1.718H546.3v1.36h-2.654v2.018H546.5Z" transform="translate(-427.804 -36.321)" fill="#2b2b2b"/>
    <path id="Caminho_5766" data-name="Caminho 5766" d="M573.464,46.014a5.14,5.14,0,0,1,1.762.257,2.018,2.018,0,0,1,1.032.776,2.361,2.361,0,0,1,.338,1.312,2.044,2.044,0,0,1-.2.937,2.137,2.137,0,0,1-.536.68,3.179,3.179,0,0,1-.719.455l2.306,3.41H575.6l-1.872-3h-.885v3H571.18V46.014Zm-.118,1.36h-.5v2.114h.536a1.964,1.964,0,0,0,1.182-.276.963.963,0,0,0,.356-.811.856.856,0,0,0-.383-.792,2.329,2.329,0,0,0-1.188-.236" transform="translate(-450.85 -36.32)" fill="#2b2b2b"/>
    <path id="Caminho_5767" data-name="Caminho 5767" d="M606.7,53.721l-.569-1.863h-2.858l-.568,1.863h-1.791l2.767-7.859h2.033l2.778,7.859Zm-.965-3.255-.568-1.82q-.054-.182-.142-.468t-.177-.584q-.088-.3-.142-.517-.053.219-.147.543t-.18.613q-.086.289-.123.412l-.563,1.82Z" transform="translate(-474.317 -36.2)" fill="#2b2b2b"/>
    <path id="Caminho_5768" data-name="Caminho 5768" d="M641.562,53.841V46.015h1.662v6.456h3.18v1.37Z" transform="translate(-506.404 -36.321)" fill="#2b2b2b"/>
    <path id="Caminho_5769" data-name="Caminho 5769" d="M155.8,104.568v2.459h-.689v-5.914h1.625a2.559,2.559,0,0,1,1.611.417,1.51,1.51,0,0,1,.521,1.254,1.571,1.571,0,0,1-1.191,1.586l1.609,2.658h-.815l-1.434-2.459Zm0-.591h.944a1.633,1.633,0,0,0,1.07-.289,1.075,1.075,0,0,0,.34-.868.987.987,0,0,0-.346-.845,1.88,1.88,0,0,0-1.112-.259h-.9Z" transform="translate(-122.435 -79.812)" fill="#2b2b2b"/>
    <path id="Caminho_5770" data-name="Caminho 5770" d="M178.712,100.772a.445.445,0,0,1,.114-.338.42.42,0,0,1,.563,0,.438.438,0,0,1,.118.336.444.444,0,0,1-.118.338.412.412,0,0,1-.563,0,.454.454,0,0,1-.114-.338m.729,5.634h-.672v-4.433h.672Z" transform="translate(-141.063 -79.191)" fill="#2b2b2b"/>
    <path id="Caminho_5771" data-name="Caminho 5771" d="M191.852,110.05a2.443,2.443,0,0,1-.547,1.693,1.928,1.928,0,0,1-1.511.609,2.006,2.006,0,0,1-1.057-.279,1.845,1.845,0,0,1-.713-.8,2.788,2.788,0,0,1-.251-1.222,2.439,2.439,0,0,1,.543-1.689,1.922,1.922,0,0,1,1.507-.6,1.88,1.88,0,0,1,1.481.619,2.432,2.432,0,0,1,.549,1.674m-3.383,0a2.1,2.1,0,0,0,.34,1.295,1.352,1.352,0,0,0,2,0,2.09,2.09,0,0,0,.342-1.3,2.057,2.057,0,0,0-.342-1.284,1.2,1.2,0,0,0-1.011-.439,1.185,1.185,0,0,0-1,.433,2.08,2.08,0,0,0-.336,1.29" transform="translate(-148.214 -85.056)" fill="#2b2b2b"/>
    <path id="Caminho_5772" data-name="Caminho 5772" d="M224.9,103.61h2.014v2.876a6.5,6.5,0,0,1-.956.227,7.3,7.3,0,0,1-1.126.077,2.733,2.733,0,0,1-2.095-.8,3.145,3.145,0,0,1-.75-2.239,3.378,3.378,0,0,1,.371-1.616,2.505,2.505,0,0,1,1.068-1.06,3.462,3.462,0,0,1,1.633-.366,4.47,4.47,0,0,1,1.767.348l-.268.607a3.949,3.949,0,0,0-1.544-.34,2.213,2.213,0,0,0-1.69.643,2.493,2.493,0,0,0-.608,1.784,2.548,2.548,0,0,0,.586,1.816,2.257,2.257,0,0,0,1.72.619,5.118,5.118,0,0,0,1.2-.141v-1.82H224.9Z" transform="translate(-175.221 -79.493)" fill="#2b2b2b"/>
    <path id="Caminho_5773" data-name="Caminho 5773" d="M253.672,107.758a2.632,2.632,0,0,1,.531.048l-.093.623a2.3,2.3,0,0,0-.486-.061,1.184,1.184,0,0,0-.922.437,1.59,1.59,0,0,0-.383,1.088v2.378h-.672v-4.433h.555l.077.821h.032a1.949,1.949,0,0,1,.6-.667,1.343,1.343,0,0,1,.766-.234" transform="translate(-198.632 -85.057)" fill="#2b2b2b"/>
    <path id="Caminho_5774" data-name="Caminho 5774" d="M269.21,112.3l-.134-.631h-.032a1.868,1.868,0,0,1-.663.564,2.026,2.026,0,0,1-.825.147,1.485,1.485,0,0,1-1.035-.34,1.239,1.239,0,0,1-.375-.967q0-1.343,2.152-1.408l.754-.024v-.275a1.123,1.123,0,0,0-.225-.77.926.926,0,0,0-.719-.249,2.931,2.931,0,0,0-1.256.34l-.207-.514a3.165,3.165,0,0,1,.719-.279,3.12,3.12,0,0,1,.784-.1,1.693,1.693,0,0,1,1.177.352,1.468,1.468,0,0,1,.383,1.129V112.3Zm-1.519-.473a1.367,1.367,0,0,0,.987-.344,1.271,1.271,0,0,0,.359-.963v-.4l-.673.028a2.452,2.452,0,0,0-1.157.249.749.749,0,0,0-.355.686.691.691,0,0,0,.221.554.918.918,0,0,0,.618.19" transform="translate(-210.078 -85.086)" fill="#2b2b2b"/>
    <path id="Caminho_5775" data-name="Caminho 5775" d="M292.67,112.271V109.4a1.156,1.156,0,0,0-.247-.809,1.007,1.007,0,0,0-.774-.267,1.278,1.278,0,0,0-1.021.376,1.9,1.9,0,0,0-.324,1.242v2.326h-.673v-4.433h.547l.11.607h.032a1.371,1.371,0,0,1,.579-.508,1.884,1.884,0,0,1,.831-.18,1.69,1.69,0,0,1,1.208.386,1.644,1.644,0,0,1,.405,1.236v2.892Z" transform="translate(-228.615 -85.056)" fill="#2b2b2b"/>
    <path id="Caminho_5776" data-name="Caminho 5776" d="M315.9,105.008h-.036a1.581,1.581,0,0,1-1.394.675,1.649,1.649,0,0,1-1.355-.595,2.613,2.613,0,0,1-.484-1.691,2.658,2.658,0,0,1,.486-1.7,1.637,1.637,0,0,1,1.353-.607,1.616,1.616,0,0,1,1.386.655h.053l-.028-.32-.016-.311v-1.8h.673V105.6h-.547Zm-1.345.113a1.226,1.226,0,0,0,1-.374,1.888,1.888,0,0,0,.31-1.208V103.4a2.222,2.222,0,0,0-.314-1.345,1.194,1.194,0,0,0-1-.4,1.03,1.03,0,0,0-.905.459,2.279,2.279,0,0,0-.314,1.3,2.186,2.186,0,0,0,.312,1.282,1.057,1.057,0,0,0,.916.433" transform="translate(-246.771 -78.388)" fill="#2b2b2b"/>
    <path id="Caminho_5777" data-name="Caminho 5777" d="M338.9,112.352a2.043,2.043,0,0,1-1.554-.6,2.315,2.315,0,0,1-.569-1.663,2.568,2.568,0,0,1,.529-1.7,1.757,1.757,0,0,1,1.42-.631,1.675,1.675,0,0,1,1.321.548,2.1,2.1,0,0,1,.486,1.446v.425h-3.059a1.755,1.755,0,0,0,.395,1.185,1.368,1.368,0,0,0,1.055.4,3.582,3.582,0,0,0,1.418-.3v.6a3.546,3.546,0,0,1-.675.22,3.8,3.8,0,0,1-.768.067m-.182-4.033a1.1,1.1,0,0,0-.853.348,1.6,1.6,0,0,0-.375.963h2.322a1.474,1.474,0,0,0-.284-.973,1,1,0,0,0-.81-.338" transform="translate(-265.824 -85.056)" fill="#2b2b2b"/>
    <path id="Caminho_5778" data-name="Caminho 5778" d="M372.373,105.008h-.036a1.581,1.581,0,0,1-1.394.675,1.649,1.649,0,0,1-1.355-.595,2.613,2.613,0,0,1-.484-1.691,2.658,2.658,0,0,1,.486-1.7,1.637,1.637,0,0,1,1.353-.607,1.616,1.616,0,0,1,1.386.655h.053l-.028-.32-.016-.311v-1.8h.673V105.6h-.547Zm-1.345.113a1.226,1.226,0,0,0,1-.374,1.888,1.888,0,0,0,.31-1.208V103.4a2.222,2.222,0,0,0-.314-1.345,1.194,1.194,0,0,0-1-.4,1.03,1.03,0,0,0-.905.459,2.279,2.279,0,0,0-.314,1.3,2.186,2.186,0,0,0,.312,1.282,1.057,1.057,0,0,0,.916.433" transform="translate(-291.344 -78.388)" fill="#2b2b2b"/>
    <path id="Caminho_5779" data-name="Caminho 5779" d="M397.321,110.05a2.443,2.443,0,0,1-.547,1.693,1.928,1.928,0,0,1-1.511.609,2.005,2.005,0,0,1-1.057-.279,1.844,1.844,0,0,1-.713-.8,2.787,2.787,0,0,1-.251-1.222,2.439,2.439,0,0,1,.543-1.689,1.922,1.922,0,0,1,1.507-.6,1.88,1.88,0,0,1,1.481.619,2.432,2.432,0,0,1,.549,1.674m-3.383,0a2.1,2.1,0,0,0,.34,1.295,1.352,1.352,0,0,0,2,0,2.09,2.09,0,0,0,.342-1.3,2.057,2.057,0,0,0-.342-1.284,1.2,1.2,0,0,0-1.011-.439,1.185,1.185,0,0,0-1,.433,2.08,2.08,0,0,0-.336,1.29" transform="translate(-310.397 -85.056)" fill="#2b2b2b"/>
    <path id="Caminho_5780" data-name="Caminho 5780" d="M433.545,107.028h-.786l-3.238-4.963h-.032q.065.874.065,1.6v3.361h-.636v-5.914h.778l3.229,4.943h.032q-.008-.109-.036-.7t-.02-.847v-3.394h.644Z" transform="translate(-338.558 -79.812)" fill="#2b2b2b"/>
    <path id="Caminho_5781" data-name="Caminho 5781" d="M461.041,110.05a2.443,2.443,0,0,1-.547,1.693,1.928,1.928,0,0,1-1.511.609,2.005,2.005,0,0,1-1.057-.279,1.845,1.845,0,0,1-.713-.8,2.788,2.788,0,0,1-.251-1.222,2.439,2.439,0,0,1,.543-1.689,1.922,1.922,0,0,1,1.507-.6,1.88,1.88,0,0,1,1.481.619,2.432,2.432,0,0,1,.549,1.674m-3.383,0a2.1,2.1,0,0,0,.34,1.295,1.352,1.352,0,0,0,2,0,2.09,2.09,0,0,0,.342-1.3,2.057,2.057,0,0,0-.342-1.284,1.2,1.2,0,0,0-1.011-.439,1.185,1.185,0,0,0-1,.433,2.08,2.08,0,0,0-.336,1.29" transform="translate(-360.693 -85.056)" fill="#2b2b2b"/>
    <path id="Caminho_5782" data-name="Caminho 5782" d="M483.951,107.758a2.631,2.631,0,0,1,.531.048l-.093.623a2.3,2.3,0,0,0-.486-.061,1.184,1.184,0,0,0-.922.437,1.59,1.59,0,0,0-.383,1.088v2.378h-.672v-4.433h.555l.077.821h.032a1.949,1.949,0,0,1,.6-.667,1.344,1.344,0,0,1,.766-.234" transform="translate(-380.398 -85.057)" fill="#2b2b2b"/>
    <path id="Caminho_5783" data-name="Caminho 5783" d="M497.237,108.251a2.183,2.183,0,0,0,.344-.026,2.216,2.216,0,0,0,.263-.055v.514a1.236,1.236,0,0,1-.322.087,2.418,2.418,0,0,1-.383.034q-1.288,0-1.288-1.355v-2.637h-.636v-.324l.636-.279.284-.947h.389v1.027h1.288v.522h-1.288v2.609a.9.9,0,0,0,.19.615.662.662,0,0,0,.523.214" transform="translate(-390.888 -81.509)" fill="#2b2b2b"/>
    <path id="Caminho_5784" data-name="Caminho 5784" d="M512.86,112.352a2.043,2.043,0,0,1-1.554-.6,2.316,2.316,0,0,1-.569-1.663,2.568,2.568,0,0,1,.529-1.7,1.757,1.757,0,0,1,1.42-.631,1.675,1.675,0,0,1,1.321.548,2.1,2.1,0,0,1,.486,1.446v.425h-3.059a1.755,1.755,0,0,0,.4,1.185,1.368,1.368,0,0,0,1.055.4,3.582,3.582,0,0,0,1.418-.3v.6a3.547,3.547,0,0,1-.675.22,3.8,3.8,0,0,1-.768.067m-.182-4.033a1.1,1.1,0,0,0-.853.348,1.6,1.6,0,0,0-.375.963h2.322a1.474,1.474,0,0,0-.284-.973,1,1,0,0,0-.81-.338" transform="translate(-403.14 -85.056)" fill="#2b2b2b"/>
    <path id="Caminho_5785" data-name="Caminho 5785" d="M157.957,146.013a1.938,1.938,0,0,0-1.542.649,2.615,2.615,0,0,0-.565,1.778,2.669,2.669,0,0,0,.545,1.794,1.939,1.939,0,0,0,1.554.633,5.315,5.315,0,0,0,1.414-.223v.6a4.365,4.365,0,0,1-1.52.23,2.572,2.572,0,0,1-2.02-.793,3.261,3.261,0,0,1-.711-2.253,3.551,3.551,0,0,1,.342-1.6,2.455,2.455,0,0,1,.989-1.06,3,3,0,0,1,1.522-.372,3.678,3.678,0,0,1,1.629.34l-.292.591a3.143,3.143,0,0,0-1.345-.316" transform="translate(-122.435 -114.767)" fill="#2b2b2b"/>
    <path id="Caminho_5786" data-name="Caminho 5786" d="M182.43,156.989l-.134-.631h-.032a1.868,1.868,0,0,1-.663.564,2.027,2.027,0,0,1-.825.147,1.485,1.485,0,0,1-1.035-.34,1.238,1.238,0,0,1-.375-.967q0-1.343,2.152-1.408l.754-.024v-.275a1.124,1.124,0,0,0-.225-.771.926.926,0,0,0-.719-.249,2.932,2.932,0,0,0-1.256.34l-.207-.514a3.162,3.162,0,0,1,.719-.279,3.128,3.128,0,0,1,.784-.1,1.7,1.7,0,0,1,1.177.352,1.469,1.469,0,0,1,.383,1.129v3.025Zm-1.519-.473a1.367,1.367,0,0,0,.987-.344,1.271,1.271,0,0,0,.359-.963v-.4l-.673.028a2.45,2.45,0,0,0-1.157.249.749.749,0,0,0-.354.686.691.691,0,0,0,.221.554.918.918,0,0,0,.618.19" transform="translate(-141.58 -120.359)" fill="#2b2b2b"/>
    <path id="Caminho_5787" data-name="Caminho 5787" d="M208.512,156.959v-2.884a1.2,1.2,0,0,0-.227-.8.879.879,0,0,0-.705-.265,1.14,1.14,0,0,0-.928.36,1.711,1.711,0,0,0-.3,1.108v2.476h-.672v-2.884a1.2,1.2,0,0,0-.227-.8.885.885,0,0,0-.709-.265,1.1,1.1,0,0,0-.926.378,2.045,2.045,0,0,0-.294,1.24v2.326h-.673v-4.433h.547l.109.607h.032a1.32,1.32,0,0,1,.537-.506,1.641,1.641,0,0,1,.776-.182,1.32,1.32,0,0,1,1.361.753h.032a1.417,1.417,0,0,1,.575-.55,1.791,1.791,0,0,1,.859-.2,1.506,1.506,0,0,1,1.129.386,1.726,1.726,0,0,1,.375,1.236v2.892Z" transform="translate(-160.116 -120.329)" fill="#2b2b2b"/>
    <path id="Caminho_5788" data-name="Caminho 5788" d="M241.557,157.04a1.923,1.923,0,0,1-.792-.159,1.49,1.49,0,0,1-.6-.491h-.049a5.928,5.928,0,0,1,.049.736v1.824h-.673v-6.424h.547l.093.607h.032a1.558,1.558,0,0,1,.6-.526,1.838,1.838,0,0,1,.79-.162,1.643,1.643,0,0,1,1.364.6,3.2,3.2,0,0,1-.008,3.388,1.645,1.645,0,0,1-1.355.6m-.1-4.025a1.194,1.194,0,0,0-.985.376,1.934,1.934,0,0,0-.312,1.2v.15a2.214,2.214,0,0,0,.312,1.337,1.187,1.187,0,0,0,1,.4,1.041,1.041,0,0,0,.9-.465,2.2,2.2,0,0,0,.326-1.282,2.121,2.121,0,0,0-.326-1.272,1.073,1.073,0,0,0-.918-.443" transform="translate(-189.037 -120.329)" fill="#2b2b2b"/>
    <path id="Caminho_5789" data-name="Caminho 5789" d="M264.08,152.829v2.876a1.156,1.156,0,0,0,.247.809,1.008,1.008,0,0,0,.774.267,1.263,1.263,0,0,0,1.019-.38,1.914,1.914,0,0,0,.322-1.242v-2.33h.673v4.433h-.555l-.1-.595h-.036a1.339,1.339,0,0,1-.573.5,1.935,1.935,0,0,1-.837.174,1.7,1.7,0,0,1-1.214-.384,1.634,1.634,0,0,1-.4-1.229v-2.9Z" transform="translate(-207.909 -120.633)" fill="#2b2b2b"/>
    <path id="Caminho_5790" data-name="Caminho 5790" d="M289.608,155.75a1.11,1.11,0,0,1-.462.955,2.173,2.173,0,0,1-1.3.336,2.824,2.824,0,0,1-1.378-.279v-.623a3.352,3.352,0,0,0,.687.255,2.877,2.877,0,0,0,.707.093,1.6,1.6,0,0,0,.81-.168.577.577,0,0,0,.059-.955,3.545,3.545,0,0,0-.877-.435,4.763,4.763,0,0,1-.881-.4,1.206,1.206,0,0,1-.389-.39,1.018,1.018,0,0,1-.128-.522.994.994,0,0,1,.442-.855,2.06,2.06,0,0,1,1.212-.314,3.55,3.55,0,0,1,1.4.291l-.239.546a3.225,3.225,0,0,0-1.212-.275,1.4,1.4,0,0,0-.721.15.463.463,0,0,0-.243.412.5.5,0,0,0,.091.3.9.9,0,0,0,.294.239,6.541,6.541,0,0,0,.778.327,2.915,2.915,0,0,1,1.068.578,1.02,1.02,0,0,1,.277.732" transform="translate(-226.112 -120.329)" fill="#2b2b2b"/>
    <path id="Caminho_5791" data-name="Caminho 5791" d="M321.938,151.716h-.786l-3.238-4.963h-.032q.065.874.065,1.6v3.361h-.636V145.8h.778l3.229,4.943h.032q-.008-.109-.036-.7t-.02-.848V145.8h.644Z" transform="translate(-250.463 -115.086)" fill="#2b2b2b"/>
    <path id="Caminho_5792" data-name="Caminho 5792" d="M348.013,156.989l-.134-.631h-.032a1.868,1.868,0,0,1-.663.564,2.027,2.027,0,0,1-.825.147,1.485,1.485,0,0,1-1.035-.34,1.239,1.239,0,0,1-.375-.967q0-1.343,2.152-1.408l.754-.024v-.275a1.124,1.124,0,0,0-.225-.771.926.926,0,0,0-.719-.249,2.932,2.932,0,0,0-1.256.34l-.207-.514a3.162,3.162,0,0,1,.719-.279,3.129,3.129,0,0,1,.784-.1,1.7,1.7,0,0,1,1.177.352,1.469,1.469,0,0,1,.383,1.129v3.025Zm-1.519-.473a1.367,1.367,0,0,0,.987-.344,1.27,1.27,0,0,0,.359-.963v-.4l-.673.028a2.45,2.45,0,0,0-1.157.249.749.749,0,0,0-.354.686.691.691,0,0,0,.221.554.918.918,0,0,0,.618.19" transform="translate(-272.279 -120.359)" fill="#2b2b2b"/>
    <path id="Caminho_5793" data-name="Caminho 5793" d="M367.667,152.94a2.207,2.207,0,0,0,.344-.026,2.25,2.25,0,0,0,.263-.055v.514a1.236,1.236,0,0,1-.322.087,2.415,2.415,0,0,1-.383.034q-1.289,0-1.289-1.355V149.5h-.636v-.324l.636-.279.284-.947h.389v1.027h1.288v.522h-1.288v2.609a.9.9,0,0,0,.19.615.663.663,0,0,0,.523.214" transform="translate(-288.615 -116.783)" fill="#2b2b2b"/>
    <path id="Caminho_5794" data-name="Caminho 5794" d="M383.826,156.989l-.134-.631h-.032a1.869,1.869,0,0,1-.663.564,2.027,2.027,0,0,1-.825.147,1.485,1.485,0,0,1-1.035-.34,1.239,1.239,0,0,1-.375-.967q0-1.343,2.152-1.408l.754-.024v-.275a1.124,1.124,0,0,0-.225-.771.926.926,0,0,0-.719-.249,2.932,2.932,0,0,0-1.256.34l-.207-.514a3.162,3.162,0,0,1,.719-.279,3.128,3.128,0,0,1,.784-.1,1.7,1.7,0,0,1,1.177.352,1.468,1.468,0,0,1,.383,1.129v3.025Zm-1.519-.473a1.367,1.367,0,0,0,.987-.344,1.271,1.271,0,0,0,.359-.963v-.4l-.673.028a2.45,2.45,0,0,0-1.157.249.749.749,0,0,0-.354.686.691.691,0,0,0,.221.554.918.918,0,0,0,.618.19" transform="translate(-300.548 -120.359)" fill="#2b2b2b"/>
    <rect id="Retângulo_3493" data-name="Retângulo 3493" width="0.673" height="6.294" transform="translate(85.163 30.336)" fill="#2b2b2b"/>
    <rect id="Retângulo_3494" data-name="Retângulo 3494" width="1.99" height="0.615" transform="translate(86.889 34.102)" fill="#2b2b2b"/>
    <path id="Caminho_5795" data-name="Caminho 5795" d="M429.15,151.715h-4.072v-.538l3.144-4.757h-3.047V145.8h3.886v.538l-3.144,4.753h3.234Z" transform="translate(-335.527 -115.086)" fill="#2b2b2b"/>
    <path id="Caminho_5796" data-name="Caminho 5796" d="M452.277,154.739a2.442,2.442,0,0,1-.547,1.693,1.928,1.928,0,0,1-1.511.609,2.006,2.006,0,0,1-1.058-.279,1.845,1.845,0,0,1-.713-.8,2.788,2.788,0,0,1-.251-1.222,2.439,2.439,0,0,1,.543-1.689,1.922,1.922,0,0,1,1.507-.6,1.881,1.881,0,0,1,1.481.619,2.433,2.433,0,0,1,.549,1.675m-3.383,0a2.1,2.1,0,0,0,.34,1.295,1.352,1.352,0,0,0,2,0,2.092,2.092,0,0,0,.342-1.3,2.058,2.058,0,0,0-.342-1.284,1.2,1.2,0,0,0-1.011-.439,1.185,1.185,0,0,0-1,.433,2.079,2.079,0,0,0-.336,1.29" transform="translate(-353.775 -120.329)" fill="#2b2b2b"/>
    <path id="Caminho_5797" data-name="Caminho 5797" d="M476.2,156.959v-2.868a1.157,1.157,0,0,0-.247-.809,1.008,1.008,0,0,0-.774-.267,1.278,1.278,0,0,0-1.021.376,1.9,1.9,0,0,0-.324,1.242v2.326h-.673v-4.433h.547l.109.607h.032a1.372,1.372,0,0,1,.58-.508,1.883,1.883,0,0,1,.831-.18,1.69,1.69,0,0,1,1.208.386,1.643,1.643,0,0,1,.405,1.236v2.892Z" transform="translate(-373.481 -120.329)" fill="#2b2b2b"/>
    <path id="Caminho_5798" data-name="Caminho 5798" d="M498.825,156.989l-.134-.631h-.032a1.868,1.868,0,0,1-.663.564,2.027,2.027,0,0,1-.825.147,1.485,1.485,0,0,1-1.035-.34,1.239,1.239,0,0,1-.375-.967q0-1.343,2.152-1.408l.754-.024v-.275a1.123,1.123,0,0,0-.225-.771.926.926,0,0,0-.719-.249,2.932,2.932,0,0,0-1.256.34l-.207-.514a3.162,3.162,0,0,1,.719-.279,3.129,3.129,0,0,1,.784-.1,1.7,1.7,0,0,1,1.177.352,1.468,1.468,0,0,1,.383,1.129v3.025Zm-1.519-.473a1.367,1.367,0,0,0,.987-.344,1.27,1.27,0,0,0,.359-.963v-.4l-.673.028a2.45,2.45,0,0,0-1.157.249.749.749,0,0,0-.354.686.691.691,0,0,0,.221.554.918.918,0,0,0,.618.19" transform="translate(-391.32 -120.359)" fill="#2b2b2b"/>
    <path id="Caminho_5799" data-name="Caminho 5799" d="M529.96,151.715V145.8h.689v5.291h2.613v.623Z" transform="translate(-418.313 -115.086)" fill="#2b2b2b"/>
    <path id="Caminho_5800" data-name="Caminho 5800" d="M550.874,157.04a2.043,2.043,0,0,1-1.554-.6,2.316,2.316,0,0,1-.569-1.663,2.568,2.568,0,0,1,.529-1.7,1.758,1.758,0,0,1,1.42-.631,1.676,1.676,0,0,1,1.321.548,2.1,2.1,0,0,1,.486,1.446v.425h-3.059a1.753,1.753,0,0,0,.4,1.185,1.367,1.367,0,0,0,1.055.4,3.581,3.581,0,0,0,1.418-.3v.6a3.553,3.553,0,0,1-.675.22,3.8,3.8,0,0,1-.768.067m-.182-4.033a1.1,1.1,0,0,0-.853.348,1.6,1.6,0,0,0-.375.963h2.322a1.475,1.475,0,0,0-.284-.973,1,1,0,0,0-.81-.338" transform="translate(-433.146 -120.329)" fill="#2b2b2b"/>
    <path id="Caminho_5801" data-name="Caminho 5801" d="M573.825,155.75a1.11,1.11,0,0,1-.462.955,2.173,2.173,0,0,1-1.3.336,2.824,2.824,0,0,1-1.378-.279v-.623a3.354,3.354,0,0,0,.687.255,2.877,2.877,0,0,0,.707.093,1.6,1.6,0,0,0,.81-.168.577.577,0,0,0,.059-.955,3.544,3.544,0,0,0-.877-.435,4.76,4.76,0,0,1-.881-.4,1.2,1.2,0,0,1-.389-.39,1.017,1.017,0,0,1-.128-.522.994.994,0,0,1,.442-.855,2.06,2.06,0,0,1,1.212-.314,3.55,3.55,0,0,1,1.4.291l-.239.546a3.225,3.225,0,0,0-1.212-.275,1.4,1.4,0,0,0-.721.15.462.462,0,0,0-.243.412.5.5,0,0,0,.091.3.9.9,0,0,0,.294.239,6.538,6.538,0,0,0,.778.327,2.915,2.915,0,0,1,1.068.578,1.02,1.02,0,0,1,.277.732" transform="translate(-450.453 -120.329)" fill="#2b2b2b"/>
    <path id="Caminho_5802" data-name="Caminho 5802" d="M590.048,152.94a2.208,2.208,0,0,0,.344-.026,2.248,2.248,0,0,0,.263-.055v.514a1.236,1.236,0,0,1-.322.087,2.415,2.415,0,0,1-.383.034q-1.289,0-1.289-1.355V149.5h-.636v-.324l.636-.279.284-.947h.389v1.027h1.288v.522h-1.288v2.609a.9.9,0,0,0,.19.615.663.663,0,0,0,.523.214" transform="translate(-464.147 -116.783)" fill="#2b2b2b"/>
    <path id="Caminho_5803" data-name="Caminho 5803" d="M605.671,157.04a2.043,2.043,0,0,1-1.554-.6,2.316,2.316,0,0,1-.569-1.663,2.568,2.568,0,0,1,.529-1.7,1.758,1.758,0,0,1,1.42-.631,1.676,1.676,0,0,1,1.321.548,2.1,2.1,0,0,1,.486,1.446v.425h-3.059a1.753,1.753,0,0,0,.4,1.185,1.367,1.367,0,0,0,1.055.4,3.58,3.58,0,0,0,1.418-.3v.6a3.553,3.553,0,0,1-.675.22,3.8,3.8,0,0,1-.768.067m-.182-4.033a1.1,1.1,0,0,0-.853.348,1.6,1.6,0,0,0-.375.963h2.322a1.475,1.475,0,0,0-.284-.973,1,1,0,0,0-.81-.338" transform="translate(-476.399 -120.329)" fill="#2b2b2b"/>
  </g>
</svg>
