<svg xmlns="http://www.w3.org/2000/svg" xmlns:xlink="http://www.w3.org/1999/xlink" width="106.123" height="168" viewBox="0 0 106.123 168">
  <defs>
    <clipPath id="clip-path">
      <rect id="Retângulo_3709" data-name="Retângulo 3709" width="106.123" height="168" fill="none"/>
    </clipPath>
  </defs>
  <g id="Grupo_1068" data-name="Grupo 1068" transform="translate(-74)">
    <g id="Grupo_1067" data-name="Grupo 1067" transform="translate(74)" clip-path="url(#clip-path)">
      <path id="Caminho_6501" data-name="Caminho 6501" d="M21.821,259.08a3.182,3.182,0,0,0-2.532,1.066,4.3,4.3,0,0,0-.928,2.919,4.381,4.381,0,0,0,.895,2.946,3.185,3.185,0,0,0,2.552,1.039,8.735,8.735,0,0,0,2.322-.365v.989a7.157,7.157,0,0,1-2.495.379,4.225,4.225,0,0,1-3.317-1.3,5.356,5.356,0,0,1-1.168-3.7,5.822,5.822,0,0,1,.563-2.63,4.033,4.033,0,0,1,1.624-1.74,4.919,4.919,0,0,1,2.5-.611,6.034,6.034,0,0,1,2.675.558l-.479.97a5.155,5.155,0,0,0-2.209-.518" transform="translate(-7.734 -116.378)"/>
      <path id="Caminho_6502" data-name="Caminho 6502" d="M37.463,269.933l-.22-1.036H37.19a3.076,3.076,0,0,1-1.088.927,3.324,3.324,0,0,1-1.354.242,2.439,2.439,0,0,1-1.7-.558,2.031,2.031,0,0,1-.615-1.587q0-2.206,3.533-2.312l1.238-.04v-.451a1.842,1.842,0,0,0-.37-1.266,1.519,1.519,0,0,0-1.18-.408,4.828,4.828,0,0,0-2.063.557l-.339-.843a5.224,5.224,0,0,1,1.18-.458,5.143,5.143,0,0,1,1.288-.166,2.783,2.783,0,0,1,1.933.578,2.409,2.409,0,0,1,.629,1.854v4.968Zm-2.5-.777a2.246,2.246,0,0,0,1.62-.564,2.088,2.088,0,0,0,.589-1.581v-.657l-1.1.046a4.015,4.015,0,0,0-1.9.409,1.23,1.23,0,0,0-.582,1.125,1.135,1.135,0,0,0,.362.911,1.506,1.506,0,0,0,1.015.312" transform="translate(-14.626 -118.391)"/>
      <path id="Caminho_6503" data-name="Caminho 6503" d="M56.525,269.923v-4.736a1.962,1.962,0,0,0-.373-1.305A1.442,1.442,0,0,0,55,263.447a1.869,1.869,0,0,0-1.524.591,2.8,2.8,0,0,0-.492,1.821v4.065h-1.1v-4.736a1.962,1.962,0,0,0-.373-1.305,1.451,1.451,0,0,0-1.165-.435,1.805,1.805,0,0,0-1.52.621,3.36,3.36,0,0,0-.482,2.036v3.819h-1.1v-7.28h.9l.18,1h.053a2.168,2.168,0,0,1,.882-.831,2.7,2.7,0,0,1,1.274-.3,2.166,2.166,0,0,1,2.235,1.235h.054a2.325,2.325,0,0,1,.944-.9,2.933,2.933,0,0,1,1.411-.332,2.472,2.472,0,0,1,1.853.634,2.837,2.837,0,0,1,.615,2.03v4.749Z" transform="translate(-21.299 -118.38)"/>
      <path id="Caminho_6504" data-name="Caminho 6504" d="M73.71,270.056a3.166,3.166,0,0,1-1.3-.262,2.445,2.445,0,0,1-.988-.808h-.08a9.75,9.75,0,0,1,.08,1.209v3h-1.1V262.643h.9l.153,1h.053a2.573,2.573,0,0,1,.991-.864,3.024,3.024,0,0,1,1.3-.265,2.7,2.7,0,0,1,2.239.99,5.262,5.262,0,0,1-.014,5.563,2.7,2.7,0,0,1-2.225.993m-.16-6.609a1.96,1.96,0,0,0-1.617.618,3.173,3.173,0,0,0-.512,1.966v.245a3.635,3.635,0,0,0,.512,2.2,1.949,1.949,0,0,0,1.643.661,1.71,1.71,0,0,0,1.481-.764,3.617,3.617,0,0,0,.535-2.106,3.484,3.484,0,0,0-.535-2.089,1.764,1.764,0,0,0-1.507-.727" transform="translate(-31.709 -118.38)"/>
      <path id="Caminho_6505" data-name="Caminho 6505" d="M86.5,262.753v4.723A1.9,1.9,0,0,0,86.9,268.8a1.656,1.656,0,0,0,1.271.438,2.078,2.078,0,0,0,1.673-.624,3.149,3.149,0,0,0,.529-2.04v-3.826h1.1v7.28H90.57l-.16-.977h-.06a2.2,2.2,0,0,1-.942.824,3.167,3.167,0,0,1-1.374.286,2.791,2.791,0,0,1-1.992-.631,2.684,2.684,0,0,1-.662-2.019v-4.762Z" transform="translate(-38.503 -118.49)"/>
      <path id="Caminho_6506" data-name="Caminho 6506" d="M105.081,267.937a1.821,1.821,0,0,1-.759,1.568,3.572,3.572,0,0,1-2.129.551,4.632,4.632,0,0,1-2.262-.458v-1.023a5.48,5.48,0,0,0,1.128.419,4.729,4.729,0,0,0,1.161.153,2.637,2.637,0,0,0,1.331-.276.948.948,0,0,0,.1-1.568,5.827,5.827,0,0,0-1.441-.714,7.772,7.772,0,0,1-1.447-.66,1.972,1.972,0,0,1-.639-.641,1.666,1.666,0,0,1-.21-.857,1.632,1.632,0,0,1,.725-1.4,3.386,3.386,0,0,1,1.99-.515,5.832,5.832,0,0,1,2.3.478l-.393.9a5.292,5.292,0,0,0-1.989-.451,2.294,2.294,0,0,0-1.184.245.76.76,0,0,0-.4.678.828.828,0,0,0,.15.5,1.483,1.483,0,0,0,.482.392,10.885,10.885,0,0,0,1.278.538,4.77,4.77,0,0,1,1.753.95,1.671,1.671,0,0,1,.456,1.2" transform="translate(-45.055 -118.38)"/>
      <path id="Caminho_6507" data-name="Caminho 6507" d="M126.948,268.035h-1.291l-5.316-8.15h-.053q.106,1.435.106,2.63v5.52h-1.044v-9.711h1.278l5.3,8.117h.053q-.013-.179-.06-1.152t-.033-1.392v-5.573h1.058Z" transform="translate(-53.821 -116.493)"/>
      <path id="Caminho_6508" data-name="Caminho 6508" d="M141.794,269.933l-.22-1.036h-.053a3.076,3.076,0,0,1-1.088.927,3.325,3.325,0,0,1-1.354.242,2.439,2.439,0,0,1-1.7-.558,2.031,2.031,0,0,1-.615-1.587q0-2.206,3.533-2.312l1.238-.04v-.451a1.842,1.842,0,0,0-.37-1.266,1.52,1.52,0,0,0-1.181-.408,4.832,4.832,0,0,0-2.063.557l-.339-.843a5.219,5.219,0,0,1,1.181-.458,5.141,5.141,0,0,1,1.287-.166,2.783,2.783,0,0,1,1.933.578,2.411,2.411,0,0,1,.629,1.854v4.968Zm-2.5-.777a2.247,2.247,0,0,0,1.62-.564,2.088,2.088,0,0,0,.589-1.581v-.657l-1.1.046a4.015,4.015,0,0,0-1.9.409,1.23,1.23,0,0,0-.583,1.125,1.137,1.137,0,0,0,.362.911,1.509,1.509,0,0,0,1.015.312" transform="translate(-61.674 -118.391)"/>
      <path id="Caminho_6509" data-name="Caminho 6509" d="M153.124,267.869a3.578,3.578,0,0,0,.566-.043,3.68,3.68,0,0,0,.433-.09v.843a2.041,2.041,0,0,1-.529.143,4,4,0,0,1-.628.056q-2.116,0-2.117-2.225v-4.33H149.8v-.531l1.044-.458.466-1.554h.639v1.687h2.117v.857h-2.117v4.284a1.469,1.469,0,0,0,.314,1.009,1.086,1.086,0,0,0,.858.352" transform="translate(-67.555 -117.104)"/>
      <path id="Caminho_6510" data-name="Caminho 6510" d="M164.36,269.933l-.219-1.036h-.053a3.076,3.076,0,0,1-1.088.927,3.327,3.327,0,0,1-1.354.242,2.441,2.441,0,0,1-1.7-.558,2.033,2.033,0,0,1-.615-1.587q0-2.206,3.533-2.312l1.238-.04v-.451a1.842,1.842,0,0,0-.369-1.266,1.521,1.521,0,0,0-1.181-.408,4.83,4.83,0,0,0-2.063.557l-.339-.843a5.219,5.219,0,0,1,1.181-.458,5.138,5.138,0,0,1,1.287-.166,2.784,2.784,0,0,1,1.933.578,2.411,2.411,0,0,1,.629,1.854v4.968Zm-2.495-.777a2.244,2.244,0,0,0,1.62-.564,2.086,2.086,0,0,0,.589-1.581v-.657l-1.1.046a4.015,4.015,0,0,0-1.9.409,1.23,1.23,0,0,0-.583,1.125,1.137,1.137,0,0,0,.362.911,1.509,1.509,0,0,0,1.015.312" transform="translate(-71.851 -118.391)"/>
      <rect id="Retângulo_3702" data-name="Retângulo 3702" width="1.105" height="10.335" transform="translate(95.603 141.207)"/>
      <path id="Caminho_6511" data-name="Caminho 6511" d="M41.646,297.768H34.959v-.883l5.164-7.812h-5v-1.016H41.5v.883l-5.163,7.8h5.31Z" transform="translate(-15.765 -129.901)"/>
      <path id="Caminho_6512" data-name="Caminho 6512" d="M56.227,296.008a4.009,4.009,0,0,1-.9,2.779,3.165,3.165,0,0,1-2.482,1,3.294,3.294,0,0,1-1.737-.459,3.031,3.031,0,0,1-1.171-1.315,4.576,4.576,0,0,1-.412-2.006,4.006,4.006,0,0,1,.892-2.774,3.156,3.156,0,0,1,2.475-.993,3.087,3.087,0,0,1,2.432,1.016,3.994,3.994,0,0,1,.9,2.75m-5.556,0a3.451,3.451,0,0,0,.559,2.125,2.221,2.221,0,0,0,3.29,0,3.436,3.436,0,0,0,.562-2.129,3.382,3.382,0,0,0-.562-2.109,1.977,1.977,0,0,0-1.66-.72,1.944,1.944,0,0,0-1.637.711,3.413,3.413,0,0,0-.552,2.119" transform="translate(-22.334 -131.788)"/>
      <path id="Caminho_6513" data-name="Caminho 6513" d="M70.247,299.655v-4.71a1.9,1.9,0,0,0-.406-1.328,1.657,1.657,0,0,0-1.271-.439,2.1,2.1,0,0,0-1.677.618,3.115,3.115,0,0,0-.533,2.039v3.82h-1.1v-7.28h.9l.18,1h.053a2.249,2.249,0,0,1,.951-.833,3.094,3.094,0,0,1,1.364-.3,2.777,2.777,0,0,1,1.983.634,2.7,2.7,0,0,1,.665,2.03v4.749Z" transform="translate(-29.428 -131.788)"/>
      <path id="Caminho_6514" data-name="Caminho 6514" d="M84.526,299.666l-.22-1.037h-.053a3.065,3.065,0,0,1-1.088.927,3.313,3.313,0,0,1-1.354.243,2.439,2.439,0,0,1-1.7-.558,2.033,2.033,0,0,1-.615-1.588q0-2.206,3.533-2.311l1.238-.04v-.452a1.842,1.842,0,0,0-.369-1.266,1.519,1.519,0,0,0-1.18-.408,4.821,4.821,0,0,0-2.063.558l-.339-.843a5.172,5.172,0,0,1,1.18-.458,5.118,5.118,0,0,1,1.288-.166,2.78,2.78,0,0,1,1.933.578,2.408,2.408,0,0,1,.629,1.853v4.969Zm-2.5-.777a2.246,2.246,0,0,0,1.62-.564,2.087,2.087,0,0,0,.589-1.581v-.658l-1.1.046a4.023,4.023,0,0,0-1.9.409,1.23,1.23,0,0,0-.582,1.125,1.134,1.134,0,0,0,.362.91,1.506,1.506,0,0,0,1.015.312" transform="translate(-35.849 -131.799)"/>
      <path id="Caminho_6515" data-name="Caminho 6515" d="M101.043,297.768v-9.711h1.131v8.688h4.292v1.023Z" transform="translate(-45.566 -129.901)"/>
      <path id="Caminho_6516" data-name="Caminho 6516" d="M116.37,299.788a3.354,3.354,0,0,1-2.552-.984,3.8,3.8,0,0,1-.935-2.73,4.216,4.216,0,0,1,.869-2.8,2.887,2.887,0,0,1,2.332-1.037,2.754,2.754,0,0,1,2.17.9,3.447,3.447,0,0,1,.8,2.375v.7h-5.024a2.879,2.879,0,0,0,.649,1.946,2.247,2.247,0,0,0,1.733.664,5.869,5.869,0,0,0,2.328-.492v.983a5.824,5.824,0,0,1-1.107.362,6.243,6.243,0,0,1-1.261.11m-.3-6.623a1.809,1.809,0,0,0-1.4.572,2.629,2.629,0,0,0-.615,1.581h3.813a2.422,2.422,0,0,0-.465-1.6,1.642,1.642,0,0,0-1.331-.555" transform="translate(-50.905 -131.788)"/>
      <path id="Caminho_6517" data-name="Caminho 6517" d="M131.869,297.669a1.821,1.821,0,0,1-.759,1.567,3.568,3.568,0,0,1-2.129.552,4.636,4.636,0,0,1-2.263-.459v-1.023a5.513,5.513,0,0,0,1.128.418,4.726,4.726,0,0,0,1.161.153,2.635,2.635,0,0,0,1.331-.276.947.947,0,0,0,.1-1.567,5.833,5.833,0,0,0-1.44-.714,7.814,7.814,0,0,1-1.448-.661,1.981,1.981,0,0,1-.639-.641,1.668,1.668,0,0,1-.21-.857,1.633,1.633,0,0,1,.725-1.405,3.388,3.388,0,0,1,1.989-.515,5.838,5.838,0,0,1,2.3.478l-.393.9a5.287,5.287,0,0,0-1.99-.452,2.285,2.285,0,0,0-1.184.246.759.759,0,0,0-.4.678.822.822,0,0,0,.15.5,1.464,1.464,0,0,0,.482.392,10.817,10.817,0,0,0,1.278.538,4.771,4.771,0,0,1,1.753.95,1.675,1.675,0,0,1,.456,1.2" transform="translate(-57.136 -131.788)"/>
      <path id="Caminho_6518" data-name="Caminho 6518" d="M140.95,297.6a3.579,3.579,0,0,0,.565-.043,3.929,3.929,0,0,0,.433-.09v.843a2.04,2.04,0,0,1-.529.143,4,4,0,0,1-.628.057q-2.116,0-2.117-2.226v-4.33H137.63v-.532l1.044-.458.466-1.554h.639V291.1H141.9v.857h-2.117v4.285a1.471,1.471,0,0,0,.313,1.009,1.086,1.086,0,0,0,.858.352" transform="translate(-62.065 -130.511)"/>
      <path id="Caminho_6519" data-name="Caminho 6519" d="M150.9,299.788a3.355,3.355,0,0,1-2.553-.984,3.8,3.8,0,0,1-.934-2.73,4.219,4.219,0,0,1,.868-2.8,2.888,2.888,0,0,1,2.332-1.037,2.755,2.755,0,0,1,2.17.9,3.449,3.449,0,0,1,.8,2.375v.7h-5.024a2.884,2.884,0,0,0,.649,1.946,2.247,2.247,0,0,0,1.733.664,5.869,5.869,0,0,0,2.329-.492v.983a5.812,5.812,0,0,1-1.107.362,6.233,6.233,0,0,1-1.261.11m-.3-6.623a1.807,1.807,0,0,0-1.4.572,2.626,2.626,0,0,0-.615,1.581h3.813a2.422,2.422,0,0,0-.466-1.6,1.64,1.64,0,0,0-1.331-.555" transform="translate(-66.475 -131.788)"/>
      <path id="Caminho_6520" data-name="Caminho 6520" d="M106.123,247.992c0,.2-.219.367-.487.367H.487c-.269,0-.487-.163-.487-.367a.441.441,0,0,1,.487-.368H105.636a.442.442,0,0,1,.487.368" transform="translate(0 -111.667)" fill="#359737"/>
      <path id="Caminho_6521" data-name="Caminho 6521" d="M35.012,194.107v4.038H33.881v-9.711h2.668a4.2,4.2,0,0,1,2.645.684,2.479,2.479,0,0,1,.855,2.059,2.58,2.58,0,0,1-1.956,2.6l2.641,4.364H39.4l-2.355-4.038Zm0-.97h1.551a2.68,2.68,0,0,0,1.756-.475,1.765,1.765,0,0,0,.559-1.425,1.618,1.618,0,0,0-.569-1.388,3.084,3.084,0,0,0-1.827-.426h-1.47Z" transform="translate(-15.279 -84.975)"/>
      <path id="Caminho_6522" data-name="Caminho 6522" d="M48.751,188.668a.731.731,0,0,1,.187-.555.69.69,0,0,1,.925,0,.719.719,0,0,1,.193.551.731.731,0,0,1-.193.555.676.676,0,0,1-.925,0,.744.744,0,0,1-.187-.555m1.2,9.253h-1.1v-7.28h1.1Z" transform="translate(-21.985 -84.751)"/>
      <path id="Caminho_6523" data-name="Caminho 6523" d="M61.16,196.385a4.009,4.009,0,0,1-.9,2.779,3.165,3.165,0,0,1-2.482,1,3.294,3.294,0,0,1-1.737-.458,3.031,3.031,0,0,1-1.171-1.316,4.576,4.576,0,0,1-.412-2.006,4.006,4.006,0,0,1,.892-2.774,3.156,3.156,0,0,1,2.475-.993,3.087,3.087,0,0,1,2.432,1.016,3.994,3.994,0,0,1,.9,2.75m-5.556,0a3.451,3.451,0,0,0,.559,2.125,2.221,2.221,0,0,0,3.29,0,3.436,3.436,0,0,0,.562-2.129,3.382,3.382,0,0,0-.562-2.109,1.978,1.978,0,0,0-1.66-.72,1.943,1.943,0,0,0-1.637.711,3.413,3.413,0,0,0-.552,2.119" transform="translate(-24.559 -86.863)"/>
      <path id="Caminho_6524" data-name="Caminho 6524" d="M80.8,192.941h3.307v4.723a10.682,10.682,0,0,1-1.57.372,11.923,11.923,0,0,1-1.85.127,4.488,4.488,0,0,1-3.44-1.312,5.166,5.166,0,0,1-1.231-3.676,5.548,5.548,0,0,1,.609-2.654,4.113,4.113,0,0,1,1.753-1.74,5.689,5.689,0,0,1,2.682-.6,7.341,7.341,0,0,1,2.9.571l-.439,1a6.5,6.5,0,0,0-2.535-.558,3.632,3.632,0,0,0-2.774,1.056,4.093,4.093,0,0,0-1,2.929,4.18,4.18,0,0,0,.961,2.982A3.7,3.7,0,0,0,81,197.173a8.42,8.42,0,0,0,1.977-.233v-2.989H80.8Z" transform="translate(-34.281 -84.86)"/>
      <path id="Caminho_6525" data-name="Caminho 6525" d="M98.033,192.619a4.321,4.321,0,0,1,.872.08l-.153,1.023a3.781,3.781,0,0,0-.8-.1,1.944,1.944,0,0,0-1.513.718,2.611,2.611,0,0,0-.629,1.787v3.906h-1.1v-7.28h.912l.126,1.348H95.8a3.2,3.2,0,0,1,.978-1.1,2.2,2.2,0,0,1,1.257-.385" transform="translate(-42.708 -86.863)"/>
      <path id="Caminho_6526" data-name="Caminho 6526" d="M108.873,200.043l-.219-1.037H108.6a3.061,3.061,0,0,1-1.088.927,3.312,3.312,0,0,1-1.353.243,2.439,2.439,0,0,1-1.7-.558,2.035,2.035,0,0,1-.615-1.588q0-2.206,3.533-2.311l1.238-.04v-.452a1.839,1.839,0,0,0-.37-1.266,1.519,1.519,0,0,0-1.18-.408,4.823,4.823,0,0,0-2.063.558l-.339-.843a5.313,5.313,0,0,1,2.469-.625,2.782,2.782,0,0,1,1.933.578,2.41,2.41,0,0,1,.628,1.853v4.969Zm-2.5-.777A2.245,2.245,0,0,0,108,198.7a2.087,2.087,0,0,0,.589-1.581v-.658l-1.1.046a4.022,4.022,0,0,0-1.9.409,1.23,1.23,0,0,0-.582,1.125,1.136,1.136,0,0,0,.362.91,1.507,1.507,0,0,0,1.015.312" transform="translate(-46.829 -86.873)"/>
      <path id="Caminho_6527" data-name="Caminho 6527" d="M123.631,200.032v-4.71a1.9,1.9,0,0,0-.406-1.328,1.657,1.657,0,0,0-1.272-.439,2.1,2.1,0,0,0-1.676.618,3.112,3.112,0,0,0-.533,2.039v3.82h-1.1v-7.28h.9l.18,1h.053a2.249,2.249,0,0,1,.951-.833,3.094,3.094,0,0,1,1.364-.3,2.777,2.777,0,0,1,1.983.634,2.7,2.7,0,0,1,.665,2.03v4.749Z" transform="translate(-53.501 -86.863)"/>
      <path id="Caminho_6528" data-name="Caminho 6528" d="M138.5,196.655h-.06a2.6,2.6,0,0,1-2.289,1.11,2.71,2.71,0,0,1-2.226-.977,4.293,4.293,0,0,1-.795-2.776,4.365,4.365,0,0,1,.8-2.8,2.69,2.69,0,0,1,2.223-1,2.655,2.655,0,0,1,2.276,1.076h.086l-.046-.524-.027-.511V187.3h1.1v10.336h-.9Zm-2.209.186a2.013,2.013,0,0,0,1.64-.614,3.1,3.1,0,0,0,.509-1.983v-.233a3.651,3.651,0,0,0-.516-2.209,1.961,1.961,0,0,0-1.647-.661,1.692,1.692,0,0,0-1.487.754,3.746,3.746,0,0,0-.516,2.129,3.59,3.59,0,0,0,.513,2.106,1.736,1.736,0,0,0,1.5.711" transform="translate(-60.038 -84.462)"/>
      <path id="Caminho_6529" data-name="Caminho 6529" d="M151.831,200.165a3.355,3.355,0,0,1-2.553-.984,3.8,3.8,0,0,1-.934-2.73,4.219,4.219,0,0,1,.868-2.8,2.888,2.888,0,0,1,2.332-1.037,2.754,2.754,0,0,1,2.17.9,3.449,3.449,0,0,1,.8,2.375v.7h-5.024a2.884,2.884,0,0,0,.649,1.946,2.247,2.247,0,0,0,1.733.664,5.869,5.869,0,0,0,2.329-.492v.983a5.815,5.815,0,0,1-1.107.362,6.233,6.233,0,0,1-1.261.11m-.3-6.623a1.807,1.807,0,0,0-1.4.572,2.626,2.626,0,0,0-.615,1.581h3.813a2.422,2.422,0,0,0-.466-1.6,1.64,1.64,0,0,0-1.331-.555" transform="translate(-66.897 -86.862)"/>
      <path id="Caminho_6530" data-name="Caminho 6530" d="M51.34,226.387h-.06a2.6,2.6,0,0,1-2.288,1.11,2.711,2.711,0,0,1-2.226-.977,4.293,4.293,0,0,1-.794-2.776,4.365,4.365,0,0,1,.8-2.8,2.689,2.689,0,0,1,2.223-1,2.656,2.656,0,0,1,2.276,1.076h.086l-.046-.525-.027-.511v-2.963h1.105v10.335h-.9Zm-2.209.186a2.014,2.014,0,0,0,1.64-.614,3.1,3.1,0,0,0,.508-1.983v-.232a3.651,3.651,0,0,0-.516-2.209,1.959,1.959,0,0,0-1.647-.66,1.692,1.692,0,0,0-1.487.754,3.748,3.748,0,0,0-.515,2.129,3.592,3.592,0,0,0,.512,2.106,1.737,1.737,0,0,0,1.5.711" transform="translate(-20.73 -97.87)"/>
      <path id="Caminho_6531" data-name="Caminho 6531" d="M67.881,226.118a4.011,4.011,0,0,1-.9,2.78,3.165,3.165,0,0,1-2.482,1,3.293,3.293,0,0,1-1.737-.459,3.028,3.028,0,0,1-1.171-1.315,4.573,4.573,0,0,1-.412-2.006,4.005,4.005,0,0,1,.892-2.773,3.154,3.154,0,0,1,2.475-.993,3.089,3.089,0,0,1,2.432,1.016,4,4,0,0,1,.9,2.75m-5.556,0a3.45,3.45,0,0,0,.559,2.125,2.221,2.221,0,0,0,3.29,0,3.438,3.438,0,0,0,.562-2.129,3.38,3.38,0,0,0-.562-2.109,1.978,1.978,0,0,0-1.66-.72,1.945,1.945,0,0,0-1.637.71,3.414,3.414,0,0,0-.552,2.119" transform="translate(-27.589 -100.271)"/>
      <path id="Caminho_6532" data-name="Caminho 6532" d="M91.258,227.876H89.967l-5.316-8.15H84.6q.106,1.435.106,2.63v5.52H83.659v-9.711h1.278l5.3,8.117h.053q-.014-.18-.06-1.152t-.033-1.392v-5.573h1.058Z" transform="translate(-37.726 -98.383)"/>
      <path id="Caminho_6533" data-name="Caminho 6533" d="M108.029,226.118a4.01,4.01,0,0,1-.9,2.78,3.165,3.165,0,0,1-2.482,1,3.293,3.293,0,0,1-1.737-.459,3.027,3.027,0,0,1-1.171-1.315,4.573,4.573,0,0,1-.413-2.006,4.008,4.008,0,0,1,.892-2.773,3.156,3.156,0,0,1,2.476-.993,3.09,3.09,0,0,1,2.432,1.016,4,4,0,0,1,.9,2.75m-5.556,0a3.45,3.45,0,0,0,.559,2.125,2.221,2.221,0,0,0,3.29,0,3.438,3.438,0,0,0,.562-2.129,3.38,3.38,0,0,0-.562-2.109,1.978,1.978,0,0,0-1.66-.72,1.945,1.945,0,0,0-1.637.71,3.414,3.414,0,0,0-.552,2.119" transform="translate(-45.694 -100.271)"/>
      <path id="Caminho_6534" data-name="Caminho 6534" d="M120.386,222.351a4.282,4.282,0,0,1,.872.08l-.153,1.022a3.781,3.781,0,0,0-.8-.1,1.944,1.944,0,0,0-1.513.718,2.612,2.612,0,0,0-.629,1.787v3.905h-1.1v-7.28h.913l.126,1.348h.054a3.2,3.2,0,0,1,.978-1.1,2.2,2.2,0,0,1,1.257-.385" transform="translate(-52.788 -100.27)"/>
      <path id="Caminho_6535" data-name="Caminho 6535" d="M128.754,227.71a3.582,3.582,0,0,0,.566-.043,3.649,3.649,0,0,0,.432-.089v.843a2.039,2.039,0,0,1-.529.143,4,4,0,0,1-.629.056q-2.116,0-2.116-2.225v-4.33h-1.045v-.531l1.045-.458.466-1.554h.639v1.687H129.7v.857h-2.116v4.284a1.469,1.469,0,0,0,.313,1.009,1.087,1.087,0,0,0,.858.352" transform="translate(-56.565 -98.994)"/>
      <path id="Caminho_6536" data-name="Caminho 6536" d="M138.7,229.9a3.355,3.355,0,0,1-2.553-.983,3.8,3.8,0,0,1-.934-2.73,4.221,4.221,0,0,1,.868-2.8,2.888,2.888,0,0,1,2.332-1.036,2.754,2.754,0,0,1,2.17.9,3.451,3.451,0,0,1,.8,2.375v.7h-5.024a2.887,2.887,0,0,0,.649,1.946,2.247,2.247,0,0,0,1.733.664,5.879,5.879,0,0,0,2.328-.492v.983a5.819,5.819,0,0,1-1.107.362,6.237,6.237,0,0,1-1.261.11m-.3-6.623a1.806,1.806,0,0,0-1.4.571,2.628,2.628,0,0,0-.615,1.581H140.2a2.424,2.424,0,0,0-.466-1.6,1.642,1.642,0,0,0-1.331-.555" transform="translate(-60.975 -100.27)"/>
      <path id="Caminho_6537" data-name="Caminho 6537" d="M126.067,12.855a1.257,1.257,0,0,1-1.257,1.26H114.392a1.258,1.258,0,0,1-1.259-1.26V2.437a1.26,1.26,0,0,1,1.259-1.259h10.419a1.258,1.258,0,0,1,1.257,1.259Z" transform="translate(-51.018 -0.531)" fill="#359737"/>
      <path id="Caminho_6557" data-name="Caminho 6557" d="M126.067,12.855a1.257,1.257,0,0,1-1.257,1.26H114.392a1.258,1.258,0,0,1-1.259-1.26V2.437a1.26,1.26,0,0,1,1.259-1.259h10.419a1.258,1.258,0,0,1,1.257,1.259Z" transform="translate(-66.538 -0.559)" fill="#359737"/>
      <path id="Caminho_6538" data-name="Caminho 6538" d="M126.067,69.4a1.257,1.257,0,0,1-1.257,1.259H114.392a1.259,1.259,0,0,1-1.259-1.259V58.981a1.258,1.258,0,0,1,1.259-1.259h10.419a1.257,1.257,0,0,1,1.257,1.259Z" transform="translate(-51.018 -26.03)" fill="#359737"/>
      <path id="Caminho_6539" data-name="Caminho 6539" d="M97.8,41.108a1.257,1.257,0,0,1-1.258,1.26H86.124a1.256,1.256,0,0,1-1.258-1.26V30.693a1.257,1.257,0,0,1,1.258-1.259H96.541A1.258,1.258,0,0,1,97.8,30.693Z" transform="translate(-38.271 -13.273)" fill="#359737"/>
      <path id="Caminho_6540" data-name="Caminho 6540" d="M69.527,97.7a1.257,1.257,0,0,1-1.258,1.259H57.853A1.256,1.256,0,0,1,56.594,97.7V87.283a1.257,1.257,0,0,1,1.259-1.26H68.269a1.258,1.258,0,0,1,1.258,1.26Z" transform="translate(-25.521 -38.793)" fill="#359737"/>
      <path id="Caminho_6558" data-name="Caminho 6558" d="M69.527,97.7a1.257,1.257,0,0,1-1.258,1.259H57.853A1.256,1.256,0,0,1,56.594,97.7V87.283a1.257,1.257,0,0,1,1.259-1.26H68.269a1.258,1.258,0,0,1,1.258,1.26Z" transform="translate(-25.521 -54.323)" fill="#359737"/>
      <path id="Caminho_6560" data-name="Caminho 6560" d="M69.527,97.7a1.257,1.257,0,0,1-1.258,1.259H57.853A1.256,1.256,0,0,1,56.594,97.7V87.283a1.257,1.257,0,0,1,1.259-1.26H68.269a1.258,1.258,0,0,1,1.258,1.26Z" transform="translate(-25.521 -69.854)" fill="#359737"/>
      <path id="Caminho_6541" data-name="Caminho 6541" d="M97.8,97.7a1.257,1.257,0,0,1-1.258,1.259H86.124A1.256,1.256,0,0,1,84.866,97.7V87.283a1.257,1.257,0,0,1,1.258-1.26H96.541a1.258,1.258,0,0,1,1.258,1.26Z" transform="translate(-38.271 -38.793)" fill="#359737"/>
      <path id="Caminho_6559" data-name="Caminho 6559" d="M97.8,97.7a1.257,1.257,0,0,1-1.258,1.259H86.124A1.256,1.256,0,0,1,84.866,97.7V87.283a1.257,1.257,0,0,1,1.258-1.26H96.541a1.258,1.258,0,0,1,1.258,1.26Z" transform="translate(-38.271 -54.323)" fill="#359737"/>
      <path id="Caminho_6542" data-name="Caminho 6542" d="M69.642,7.115A7.113,7.113,0,1,1,62.528,0a7.114,7.114,0,0,1,7.114,7.115" transform="translate(-24.99)" fill="#c91517"/>
      <rect id="Retângulo_3707" data-name="Retângulo 3707" width="2.734" height="12.869" transform="translate(6.21 69.213)"/>
      <path id="Caminho_6543" data-name="Caminho 6543" d="M33.635,138.931H30.16L24.552,129.2h-.079q.035.607.061,1.223t.053,1.228q.027.613.053,1.228v6.056H22.2V126.062h3.448l5.6,9.639h.061q-.017-.6-.044-1.189t-.048-1.179q-.022-.59-.04-1.18v-6.091h2.46Z" transform="translate(-10.01 -56.848)"/>
      <path id="Caminho_6544" data-name="Caminho 6544" d="M55.9,135.205a3.391,3.391,0,0,1-2.174,3.292,6.505,6.505,0,0,1-2.579.458,9.685,9.685,0,0,1-1.31-.088,8.513,8.513,0,0,1-1.225-.26,7.2,7.2,0,0,1-1.115-.427v-2.535q.917.405,1.9.731a6.227,6.227,0,0,0,1.957.326,2.773,2.773,0,0,0,1.08-.176,1.23,1.23,0,0,0,.6-.484,1.338,1.338,0,0,0,.186-.7,1.158,1.158,0,0,0-.327-.827,3.427,3.427,0,0,0-.895-.643q-.568-.3-1.283-.642-.45-.212-.979-.516a5.5,5.5,0,0,1-1.005-.743,3.528,3.528,0,0,1-.78-1.07,3.431,3.431,0,0,1-.3-1.509,3.553,3.553,0,0,1,.529-1.971,3.376,3.376,0,0,1,1.513-1.255,5.7,5.7,0,0,1,2.323-.435,7.729,7.729,0,0,1,1.918.233,12.215,12.215,0,0,1,1.908.674l-.882,2.121a15.507,15.507,0,0,0-1.6-.559,5.283,5.283,0,0,0-1.437-.2,2.114,2.114,0,0,0-.873.163,1.21,1.21,0,0,0-.547.458,1.252,1.252,0,0,0-.185.682,1.138,1.138,0,0,0,.269.77,2.814,2.814,0,0,0,.811.6q.542.291,1.354.678a10.714,10.714,0,0,1,1.688.972,3.655,3.655,0,0,1,1.08,1.188,3.449,3.449,0,0,1,.379,1.695" transform="translate(-21.417 -56.696)"/>
      <path id="Caminho_6545" data-name="Caminho 6545" d="M70.991,138.931H68.257v-10.6h-3.5v-2.271h9.735v2.271h-3.5Z" transform="translate(-29.203 -56.848)"/>
      <rect id="Retângulo_3708" data-name="Retângulo 3708" width="2.734" height="12.869" transform="translate(47.273 69.213)"/>
      <path id="Caminho_6546" data-name="Caminho 6546" d="M100.926,138.931H98.192v-10.6h-3.5v-2.271h9.735v2.271h-3.5Z" transform="translate(-42.702 -56.848)"/>
      <path id="Caminho_6547" data-name="Caminho 6547" d="M126.457,126.061v8.327a4.906,4.906,0,0,1-.586,2.4,4.172,4.172,0,0,1-1.772,1.694,6.355,6.355,0,0,1-2.985.625,5.37,5.37,0,0,1-3.9-1.3,4.59,4.59,0,0,1-1.34-3.45v-8.292H118.6v7.878a3.079,3.079,0,0,0,.653,2.236,2.645,2.645,0,0,0,1.931.643,3.017,3.017,0,0,0,1.459-.309,1.848,1.848,0,0,0,.825-.95,4.342,4.342,0,0,0,.264-1.637v-7.861Z" transform="translate(-52.255 -56.848)"/>
      <path id="Caminho_6548" data-name="Caminho 6548" d="M144.834,138.931H142.1v-10.6h-3.5v-2.271h9.735v2.271h-3.5Z" transform="translate(-62.503 -56.848)"/>
      <path id="Caminho_6549" data-name="Caminho 6549" d="M171.174,132.312a9.28,9.28,0,0,1-.371,2.707,5.747,5.747,0,0,1-1.124,2.1,4.913,4.913,0,0,1-1.909,1.351,8.177,8.177,0,0,1-5.467,0,4.913,4.913,0,0,1-1.909-1.351,5.741,5.741,0,0,1-1.124-2.1,9.359,9.359,0,0,1-.371-2.72,8.542,8.542,0,0,1,.657-3.481,4.947,4.947,0,0,1,2.023-2.3,6.671,6.671,0,0,1,3.474-.819,6.577,6.577,0,0,1,3.452.819,4.964,4.964,0,0,1,2.011,2.306,8.594,8.594,0,0,1,.657,3.494m-9.408,0a7.062,7.062,0,0,0,.339,2.32,3,3,0,0,0,1.063,1.5,3.108,3.108,0,0,0,1.869.524,3.143,3.143,0,0,0,1.887-.524,2.963,2.963,0,0,0,1.054-1.5,7.226,7.226,0,0,0,.331-2.32,5.784,5.784,0,0,0-.758-3.187,2.756,2.756,0,0,0-2.5-1.162,3.143,3.143,0,0,0-1.882.524,3,3,0,0,0-1.067,1.5,7.089,7.089,0,0,0-.339,2.328" transform="translate(-71.657 -56.682)"/>
      <path id="Caminho_6550" data-name="Caminho 6550" d="M30.346,167.1H27.657V154.232h7.389v2.236h-4.7v3.318h4.373v2.227H30.346Z" transform="translate(-12.472 -69.552)"/>
      <path id="Caminho_6551" data-name="Caminho 6551" d="M53.132,167.1H45.708V154.232h7.424v2.236H48.441v2.825h4.365v2.236H48.441v3.318h4.691Z" transform="translate(-20.612 -69.552)"/>
      <path id="Caminho_6552" data-name="Caminho 6552" d="M74.824,160.543a7.219,7.219,0,0,1-.833,3.631,5.256,5.256,0,0,1-2.411,2.192,8.954,8.954,0,0,1-3.8.735H64.128V154.232h4.048a8.036,8.036,0,0,1,3.518.718A5.251,5.251,0,0,1,74,157.071a6.789,6.789,0,0,1,.82,3.472m-2.839.071a5.681,5.681,0,0,0-.419-2.346,2.81,2.81,0,0,0-1.234-1.36,4.2,4.2,0,0,0-2.015-.44H66.862v8.38h1.173a3.841,3.841,0,0,0,2.976-1.065,4.551,4.551,0,0,0,.975-3.169" transform="translate(-28.919 -69.552)"/>
      <path id="Caminho_6553" data-name="Caminho 6553" d="M95.9,167.1H88.475V154.232H95.9v2.236H91.209v2.825h4.364v2.236H91.209v3.318H95.9Z" transform="translate(-39.898 -69.552)"/>
      <path id="Caminho_6554" data-name="Caminho 6554" d="M110.652,154.232a8.467,8.467,0,0,1,2.9.422,3.32,3.32,0,0,1,1.7,1.277,3.883,3.883,0,0,1,.555,2.157,3.368,3.368,0,0,1-.335,1.541,3.512,3.512,0,0,1-.882,1.118,5.186,5.186,0,0,1-1.182.748l3.792,5.607h-3.033l-3.077-4.938h-1.455V167.1H106.9V154.232Zm-.194,2.236h-.829v3.477h.882a3.228,3.228,0,0,0,1.945-.453,1.582,1.582,0,0,0,.586-1.334,1.407,1.407,0,0,0-.63-1.3,3.828,3.828,0,0,0-1.953-.388" transform="translate(-48.205 -69.552)"/>
      <path id="Caminho_6555" data-name="Caminho 6555" d="M135.168,167.058,134.233,164h-4.7l-.934,3.063h-2.945l4.55-12.921h3.342l4.567,12.921Zm-1.587-5.352-.935-2.992q-.088-.3-.233-.77c-.1-.314-.194-.634-.291-.96s-.175-.608-.234-.849q-.088.362-.242.893t-.3,1.008q-.142.476-.2.678l-.926,2.992Z" transform="translate(-56.664 -69.509)"/>
      <path id="Caminho_6556" data-name="Caminho 6556" d="M151.3,167.1V154.232h2.734v10.616h5.229V167.1Z" transform="translate(-68.23 -69.552)"/>
    </g>
  </g>
</svg>
