<svg xmlns="http://www.w3.org/2000/svg" xmlns:xlink="http://www.w3.org/1999/xlink" width="23.839" height="19.088" viewBox="0 0 23.839 19.088">
  <defs>
    <clipPath id="clip-path">
      <rect id="Retângulo_3664" data-name="Retângulo 3664" width="23.839" height="19.088" fill="#fff"/>
    </clipPath>
  </defs>
  <g id="Grupo_980" data-name="Grupo 980" clip-path="url(#clip-path)">
    <path id="Caminho_6529" data-name="Caminho 6529" d="M10.216,120.466H1.764a1.764,1.764,0,1,1,0-3.528h8.452a1.764,1.764,0,1,1,0,3.528" transform="translate(0 -109.158)" fill="#fff"/>
    <path id="Caminho_6530" data-name="Caminho 6530" d="M10.216,237.4H1.764a1.764,1.764,0,0,1,0-3.528h8.452a1.764,1.764,0,0,1,0,3.528" transform="translate(0 -218.316)" fill="#fff"/>
    <path id="Caminho_6531" data-name="Caminho 6531" d="M21.859,3.528H1.98A1.882,1.882,0,0,1,0,1.764,1.882,1.882,0,0,1,1.98,0H21.859a1.882,1.882,0,0,1,1.98,1.764,1.882,1.882,0,0,1-1.98,1.764" fill="#fff"/>
    <path id="Caminho_6532" data-name="Caminho 6532" d="M232.841,131.272,226,127.32a1.03,1.03,0,0,0-1.545.892v7.9a1.03,1.03,0,0,0,1.545.892l6.846-3.952a1.03,1.03,0,0,0,0-1.785" transform="translate(-209.518 -118.719)" fill="#fff"/>
  </g>
</svg>
